<svg version="1.1" id="Layer_1" xmlns="http://www.w3.org/2000/svg" xmlns:xlink="http://www.w3.org/1999/xlink" x="0px" y="0px"
     width="100%" viewBox="0 0 512 512" enable-background="new 0 0 512 512" xml:space="preserve">
<path fill="#FFFFFF" opacity="1.000000" stroke="none" 
    d="
M87.188324,121.017822 
    C114.436287,113.810249 141.259888,106.612541 168.087082,99.428192 
    C188.563400,93.944626 209.049759,88.498497 229.521652,82.998459 
    C253.705460,76.501175 277.873840,69.946472 302.057587,63.449009 
    C323.770020,57.615532 345.484436,51.788982 367.216522,46.029419 
    C382.578064,41.958221 397.899811,37.701672 413.368835,34.081184 
    C429.328888,30.345774 444.554657,32.948677 457.908051,42.558510 
    C472.554047,53.098606 480.471680,67.397461 481.169983,85.921036 
    C481.700012,99.981041 476.842712,112.734299 473.488098,125.837906 
    C464.926819,159.279739 455.935242,192.612610 446.950348,225.944458 
    C439.179810,254.771286 431.070984,283.506989 423.317627,312.338348 
    C416.394348,338.082916 409.880585,363.937683 402.943634,389.678467 
    C397.933777,408.268311 393.073486,426.928253 387.144653,445.232422 
    C381.053802,464.036865 367.476410,475.804169 348.234283,479.854187 
    C327.606567,484.195801 308.671661,479.875885 294.441101,463.532440 
    C288.539429,456.754486 284.762360,448.029510 280.532562,439.922089 
    C276.827820,432.820984 273.780212,425.372009 270.549988,418.029327 
    C260.934418,396.172028 251.391846,374.282654 241.780731,352.423370 
    C236.489014,340.388031 231.326309,328.287750 225.649582,316.435089 
    C224.010361,313.012421 224.221924,311.172180 226.863785,308.542908 
    C261.233521,274.337341 295.379395,239.906052 329.870697,205.824127 
    C336.329895,199.441589 335.892883,189.222168 330.446838,183.697418 
    C324.788849,177.957611 314.457458,177.790710 308.325928,183.994461 
    C274.356995,218.363480 240.060547,252.408646 205.954910,286.643066 
    C203.230026,289.378235 201.388107,290.118134 197.290558,288.252045 
    C172.793579,277.095520 147.997604,266.597900 123.370819,255.723160 
    C106.794296,248.403290 90.391495,240.688950 73.794518,233.416870 
    C64.258362,229.238541 54.842770,225.069916 47.629070,217.166580 
    C38.945549,207.652817 33.925514,196.731201 32.894375,183.729218 
    C31.878485,170.919464 34.359329,159.201736 41.162720,148.326599 
    C50.387524,133.580841 64.572945,126.687088 80.837013,122.974251 
    C82.855659,122.513420 84.791359,121.689240 87.188324,121.017822 
z"/>
</svg>