<svg version="1.1" id="Layer_1" xmlns="http://www.w3.org/2000/svg" xmlns:xlink="http://www.w3.org/1999/xlink" x="0px" y="0px"
	 width="100%" viewBox="0 0 512 512" enable-background="new 0 0 512 512" xml:space="preserve">
<path fill="#FFFFFF" opacity="1.000000" stroke="none" 
	d="
M379.757263,463.739075 
	C278.977356,522.942261 156.146530,501.299957 82.437744,422.664246 
	C-2.687655,331.848724 0.049154,205.749512 57.960815,121.756302 
	C132.270859,13.979432 263.798004,-6.254218 360.530396,39.831757 
	C359.467407,41.300678 358.635773,42.816414 357.468658,44.001846 
	C351.039581,50.531879 344.732147,57.203224 337.984192,63.391205 
	C332.108582,68.779205 329.288086,75.055832 329.979675,82.973618 
	C330.120148,84.581825 330.000000,86.212799 330.000000,88.454407 
	C276.057129,66.931290 223.296631,68.312996 172.049026,94.646919 
	C135.551865,113.401222 108.445969,141.972855 91.060532,179.176224 
	C56.085426,254.020050 74.961517,337.226990 130.311615,389.467224 
	C195.434341,450.931061 281.691986,452.794617 345.781342,417.522339 
	C372.570862,402.778412 394.371216,382.225098 411.046631,356.441223 
	C427.442535,331.089539 437.307770,303.262512 439.795197,273.310547 
	C442.305054,243.088486 438.328003,213.488251 425.592560,185.418747 
	C429.740265,184.895691 433.455536,184.946533 436.807617,183.868332 
	C440.690063,182.619537 444.878540,181.076126 447.832062,178.430359 
	C455.266998,171.770126 462.079559,164.415451 469.146820,157.344376 
	C473.813873,152.674789 474.047394,152.595612 476.313416,158.840073 
	C481.116577,172.076202 486.399292,185.206680 490.072021,198.763382 
	C493.103088,209.951675 494.750122,221.630630 495.822174,233.202240 
	C496.950195,245.377625 497.125305,257.692596 496.891113,269.930756 
	C496.551208,287.691467 493.666779,305.241211 488.219177,322.093506 
	C483.305878,337.292938 477.540710,352.320343 470.814331,366.802673 
	C463.319336,382.939880 453.324036,397.750580 441.363434,411.020477 
	C433.130402,420.154694 425.018585,429.585815 415.661469,437.470764 
	C404.444366,446.923065 391.960358,454.871857 379.757263,463.739075 
z"/>
<path fill="#FFFFFF" opacity="1.000000" stroke="none" 
	d="
M182.795105,151.706055 
	C193.506165,146.261032 203.770706,140.635193 214.473145,136.026199 
	C226.516266,130.839828 239.363739,129.271057 252.503540,128.865189 
	C269.012299,128.355270 284.994629,130.358505 300.477936,136.040680 
	C305.116913,137.743134 309.582855,139.916916 315.003693,142.251923 
	C313.325348,144.036133 312.287933,145.198624 311.188293,146.298950 
	C298.583862,158.910828 285.959991,171.503296 273.369415,184.128998 
	C271.497620,186.006027 270.004883,186.607925 266.798309,186.284760 
	C247.935867,184.383789 230.288818,188.026947 214.730911,199.706024 
	C198.730469,211.717316 188.884888,227.720917 186.268005,247.229080 
	C183.750336,265.997620 188.046921,283.728394 199.721573,299.283783 
	C211.732086,315.286652 227.741913,325.103210 247.249924,327.737579 
	C265.846375,330.248810 283.488983,326.044800 298.925110,314.589935 
	C314.953339,302.695679 324.468353,286.687103 327.709229,267.214752 
	C328.839813,260.421936 327.770905,253.272018 327.839203,246.286484 
	C327.853943,244.775848 327.926819,242.766785 328.839111,241.838806 
	C342.505066,227.937622 356.315094,214.178085 370.104828,200.398804 
	C370.314667,200.189117 370.696167,200.151245 372.240387,199.546326 
	C374.823944,206.303238 377.588043,213.009613 379.963928,219.850800 
	C385.562958,235.972717 385.929901,252.770355 384.826385,269.462769 
	C383.723083,286.152740 378.594360,301.925323 370.709564,316.787994 
	C360.973145,335.140900 347.655151,350.133270 330.658234,362.139557 
	C316.358276,372.240692 300.778595,379.620911 283.777954,382.785645 
	C247.043228,389.623993 212.577377,383.391968 181.859726,361.248047 
	C166.318787,350.044800 153.626419,336.128693 144.499268,319.068817 
	C134.892715,301.112885 129.504730,282.251678 128.824615,261.724854 
	C128.068527,238.904602 132.664917,217.565598 142.986893,197.365692 
	C152.388657,178.966629 166.178925,164.335632 182.795105,151.706055 
z"/>
<path fill="#FFFFFF" opacity="1.000000" stroke="none" 
	d="
M455.895630,96.998772 
	C466.806702,96.999916 477.300903,97.006859 487.795105,96.996086 
	C491.251099,96.992546 494.959595,96.619453 496.348419,100.878357 
	C497.740601,105.147507 497.500641,109.090019 493.968445,112.575623 
	C481.994537,124.391617 470.151459,136.340195 458.260559,148.240295 
	C452.491852,154.013474 446.917847,160.002640 440.857666,165.451279 
	C438.773193,167.325363 435.499664,168.789200 432.736847,168.845535 
	C417.085327,169.164764 401.423065,169.086655 385.766693,168.925705 
	C382.694550,168.894119 380.615265,169.802322 378.455200,171.970764 
	C344.599945,205.958176 310.653046,239.854294 276.727020,273.771210 
	C266.446899,284.048584 251.243652,285.478271 240.093689,276.431030 
	C230.850616,268.931091 228.998734,253.724747 235.547806,243.023529 
	C236.978683,240.685486 238.934753,238.614365 240.887222,236.658157 
	C274.540955,202.939972 308.213928,169.240921 341.957794,135.612991 
	C344.094727,133.483398 345.121094,131.454483 345.084381,128.332062 
	C344.900269,112.676208 344.838104,97.013771 345.151306,81.362022 
	C345.206787,78.590340 346.547638,75.178329 348.471344,73.214134 
	C365.835449,55.484222 383.506927,38.055759 400.966125,20.417973 
	C403.801514,17.553608 406.936340,16.624743 410.721161,16.999329 
	C415.020142,17.424793 417.024994,19.815214 417.011383,24.107008 
	C416.977051,34.934254 416.997345,45.761684 417.006714,56.589031 
	C417.007385,57.337791 417.098633,58.086475 417.198242,59.604816 
	C420.649658,56.796925 423.339630,54.250469 426.370667,52.210835 
	C434.926605,46.453369 444.054138,46.173214 453.114716,50.688267 
	C462.064117,55.147903 465.808868,62.756290 466.129578,72.759270 
	C466.445862,82.625458 461.483643,89.386154 454.946045,95.638435 
	C454.691498,95.881851 454.695343,96.395447 454.578796,96.783173 
	C454.878784,96.854668 455.178772,96.926163 455.895630,96.998772 
z"/>
</svg>