<svg version="1.1" id="Layer_1" xmlns="http://www.w3.org/2000/svg" xmlns:xlink="http://www.w3.org/1999/xlink" x="0px" y="0px"
     width="100%" viewBox="0 0 512 512" enable-background="new 0 0 512 512" xml:space="preserve">
<path fill="#FFFFFF" opacity="1.000000" stroke="none" 
    d="
M43.000000,437.994385 
    C43.000000,363.186981 43.000000,288.878448 43.000000,214.285080 
    C185.625397,214.285080 328.027893,214.285080 470.765961,214.285080 
    C470.840393,215.470581 470.989868,216.741241 470.990051,218.011932 
    C471.001160,294.843201 470.988586,371.674500 471.011536,448.505768 
    C471.015228,460.955109 461.064636,470.995331 448.732117,470.995972 
    C320.902191,471.002533 193.072235,471.045044 65.242424,470.931946 
    C52.140617,470.920380 43.371471,461.821625 43.013374,448.492371 
    C42.923893,445.161621 43.000000,441.826447 43.000000,437.994385 
z"/>
<path fill="#FFFFFF" opacity="1.000000" stroke="none" 
    d="
M313.000000,172.000000 
    C222.877075,172.000000 133.254150,172.000000 43.244770,172.000000 
    C43.158165,170.435013 43.011326,169.006042 43.010223,167.576965 
    C42.995079,147.916748 42.982670,128.256485 43.006180,108.596275 
    C43.021507,95.775826 52.758003,85.612473 65.524895,85.843391 
    C93.484261,86.349113 121.459099,86.000000 149.823303,86.000000 
    C149.823303,71.716606 149.823303,57.643284 149.823303,43.286980 
    C164.284225,43.286980 178.353745,43.286980 192.821289,43.286980 
    C192.821289,57.281349 192.821289,71.354668 192.821289,85.712013 
    C235.611481,85.712013 278.007111,85.712013 320.799622,85.712013 
    C320.799622,71.740692 320.799622,57.667397 320.799622,43.298817 
    C335.259979,43.298817 349.329803,43.298817 363.797607,43.298817 
    C363.797607,57.257256 363.797607,71.330566 363.797607,86.000000 
    C365.945221,86.000000 367.706360,86.000000 369.467529,86.000000 
    C395.958862,86.000000 422.452850,86.221283 448.940338,85.902122 
    C461.288727,85.753326 470.486877,94.871071 470.822296,106.565788 
    C471.442230,128.181015 470.999573,149.826721 470.999573,172.000000 
    C418.333038,172.000000 365.916534,172.000000 313.000000,172.000000 
z"/>
</svg>