<svg version="1.1" id="Layer_1" xmlns="http://www.w3.org/2000/svg" xmlns:xlink="http://www.w3.org/1999/xlink" x="0px" y="0px"
	 width="100%" viewBox="0 0 512 512" enable-background="new 0 0 512 512" xml:space="preserve">
<path fill="#FFFFFF" opacity="1.000000" stroke="none" 
	d="
M513.000000,180.000000 
	C513.000000,188.687561 513.000000,197.375137 512.674194,206.236908 
	C511.901703,207.047974 511.241119,207.624374 511.041473,208.330994 
	C508.960785,215.694458 504.806427,221.726654 499.447021,227.078720 
	C464.694427,261.783691 429.994781,296.541718 395.195740,331.200012 
	C392.921509,333.465027 391.918579,335.667450 391.927185,338.920990 
	C392.037567,380.543488 392.057037,422.166565 391.922943,463.788910 
	C391.907379,468.629364 391.269806,473.568054 390.170380,478.286407 
	C386.548248,493.831573 377.330261,504.683777 362.252563,510.409271 
	C361.309753,510.767334 360.742157,512.113525 360.000000,513.000000 
	C251.312439,513.000000 142.624878,513.000000 33.763092,512.674194 
	C33.267147,511.974518 33.010326,511.372498 32.614334,511.259857 
	C18.122234,507.138489 8.721440,497.633362 3.292376,483.813629 
	C2.984452,483.029877 1.784688,482.596466 1.000005,482.000000 
	C1.000000,332.312439 1.000000,182.624878 1.315670,32.760078 
	C2.077428,32.130566 2.748148,31.756487 2.936769,31.214598 
	C7.725543,17.456905 17.122396,8.267456 30.593369,3.015453 
	C31.227743,2.768126 31.538519,1.690790 32.000000,1.000000 
	C126.687561,1.000000 221.375122,1.000000 316.237793,1.321714 
	C317.045776,2.093085 317.656219,2.578944 318.314972,2.986775 
	C324.565552,6.856442 331.642212,9.833450 336.922119,14.743709 
	C350.821655,27.670023 364.092194,41.288952 377.297821,54.937210 
	C382.661133,60.480255 387.707245,66.553391 389.123016,74.570984 
	C390.219269,80.779068 391.825409,87.028145 391.871887,93.268921 
	C392.136230,128.755737 392.000000,164.245514 392.000000,199.734283 
	C392.000000,201.330856 392.000000,202.927414 392.000000,204.523987 
	C392.376740,204.779007 392.753479,205.034027 393.130219,205.289047 
	C394.093628,204.022964 394.927826,202.628281 396.040161,201.510376 
	C409.672119,187.810074 423.215424,174.017685 437.046967,160.521011 
	C448.649506,149.199356 463.002167,146.808151 478.265442,149.838928 
	C494.067108,152.976654 504.572815,162.781113 510.406097,177.744537 
	C510.774567,178.689774 512.112854,179.256943 513.000000,180.000000 
M361.000000,211.500000 
	C361.000000,181.409927 361.000000,151.319870 361.000000,121.000000 
	C335.137634,121.000000 309.834778,121.005325 284.531952,120.996826 
	C276.656036,120.994186 271.008240,115.420113 271.004333,107.630890 
	C270.992401,83.803642 271.000000,59.976398 271.000000,36.149155 
	C271.000000,34.537361 271.000000,32.925571 271.000000,31.000000 
	C268.734985,31.000000 266.937164,31.000000 265.139343,31.000000 
	C196.156982,31.000000 127.174591,30.979691 58.192276,31.043049 
	C53.289825,31.047552 48.371101,31.510969 43.489986,32.038818 
	C37.166336,32.722668 32.008266,38.600124 32.007812,44.920727 
	C31.997631,186.384583 31.992863,327.848419 32.073074,469.312256 
	C32.074196,471.285797 32.870670,473.418854 33.814785,475.202911 
	C37.120148,481.448914 43.264572,482.902771 49.427650,482.910797 
	C147.069214,483.037720 244.710999,483.027222 342.352539,482.891663 
	C345.927155,482.886688 349.851562,481.953308 352.999146,480.290619 
	C359.413483,476.902313 360.922394,470.501556 360.966766,463.818115 
	C361.070709,448.156128 361.000000,432.492981 361.000000,416.830322 
	C361.000000,400.061646 361.000000,383.292999 361.000000,366.471039 
	C358.131500,368.069031 355.665558,369.972137 352.875183,370.912659 
	C332.373352,377.822968 311.865570,384.730560 291.207001,391.147430 
	C287.409088,392.327148 282.823242,391.817871 278.765594,391.124878 
	C271.821472,389.938934 267.460602,380.172821 270.591614,370.837769 
	C276.962463,351.842957 283.473694,332.891541 289.509216,313.790161 
	C291.498871,307.493286 294.791656,302.532562 299.430084,297.954773 
	C319.115082,278.527039 338.637115,258.932831 358.055267,239.238281 
	C359.662903,237.607758 360.738525,234.809921 360.868835,232.487534 
	C361.241638,225.843475 361.000000,219.164963 361.000000,211.500000 
M394.000000,288.500000 
	C409.664124,272.855438 425.328247,257.210907 440.776276,241.782150 
	C433.907837,234.853088 427.138855,228.024323 420.842590,221.672485 
	C397.339233,245.173615 373.809875,268.700714 350.538025,291.970367 
	C356.879822,298.454071 363.461578,305.183105 370.362610,312.238556 
	C378.042969,304.524658 385.771484,296.762329 394.000000,288.500000 
M358.146088,90.999901 
	C359.061981,90.906601 359.977875,90.813293 360.358154,90.774551 
	C361.589355,81.869675 355.132141,77.671570 350.119324,72.635620 
	C338.960724,61.425529 327.703644,50.312946 316.601990,39.047024 
	C312.568298,34.953648 308.685791,30.864820 302.201721,31.387182 
	C302.201721,51.107830 302.201721,70.859352 302.201721,91.000000 
	C320.670288,91.000000 338.939850,91.000000 358.146088,90.999901 
M451.500214,207.000137 
	C455.464691,211.010010 459.429199,215.019882 463.536499,219.174240 
	C468.313751,214.333374 473.037140,209.667496 477.623871,204.870911 
	C484.429413,197.753922 482.849670,188.442383 478.318695,183.813522 
	C473.393890,178.782333 463.641449,178.362442 458.338776,183.226181 
	C453.031189,188.094437 447.996002,193.259689 442.768066,198.366394 
	C445.806183,201.368271 448.403229,203.934296 451.500214,207.000137 
M318.444092,326.043274 
	C315.626495,334.583374 312.808899,343.123505 309.879761,352.001740 
	C340.895752,342.640106 340.895752,342.640106 347.276642,334.795624 
	C340.493988,328.003113 333.761169,321.260559 326.386688,313.875366 
	C323.959900,317.648041 321.456970,321.539062 318.444092,326.043274 
z"/>
<path fill="#FFFFFF" opacity="1.000000" stroke="none" 
	d="
M210.000000,151.000000 
	C236.163803,151.000000 261.828552,151.123749 287.490845,150.929276 
	C295.865509,150.865814 301.821381,158.085098 301.711609,166.107529 
	C301.593384,174.748901 295.090393,181.118134 287.269501,181.099396 
	C216.444489,180.929703 145.618896,181.001419 74.793472,180.998215 
	C65.756363,180.997803 60.987141,175.416168 61.000000,164.889252 
	C61.010342,156.424286 66.476265,151.001434 75.015205,151.001007 
	C119.843468,150.998856 164.671738,151.000000 210.000000,151.000000 
z"/>
<path fill="#FFFFFF" opacity="1.000000" stroke="none" 
	d="
M64.249168,236.646835 
	C58.253002,228.303345 60.224113,216.619446 68.013062,212.578568 
	C69.802544,211.650208 71.997833,211.067230 74.007530,211.064041 
	C125.297516,210.982834 176.587723,211.040039 227.877701,210.956955 
	C235.591797,210.944473 241.688248,217.622269 241.706680,225.980667 
	C241.724808,234.199707 235.781219,241.044312 227.917511,241.034134 
	C176.627487,240.967743 125.336983,241.072067 74.048035,240.827393 
	C70.848885,240.812134 67.661568,238.313507 64.249168,236.646835 
z"/>
<path fill="#FFFFFF" opacity="1.000000" stroke="none" 
	d="
M238.003677,276.034302 
	C242.407104,281.305603 242.397079,286.873383 240.037582,292.462646 
	C237.541428,298.375549 233.032837,301.100189 226.309982,301.080505 
	C175.852554,300.932709 125.394493,301.001404 74.936630,300.998718 
	C65.931343,300.998230 60.998421,295.521790 61.000004,285.550079 
	C61.001446,276.482056 66.204041,271.002075 74.837311,271.001526 
	C125.128639,270.998383 175.420166,271.062073 225.710999,270.902679 
	C230.667648,270.886963 234.583481,272.247498 238.003677,276.034302 
z"/>
<path fill="#FFFFFF" opacity="1.000000" stroke="none" 
	d="
M151.000000,361.000000 
	C125.836914,361.000000 101.173828,361.000031 76.510742,361.000000 
	C65.885147,360.999969 61.188046,356.146088 60.925236,345.609375 
	C60.779987,339.786011 62.968269,335.484314 67.889244,332.770081 
	C69.904007,331.658783 72.476128,331.075470 74.796204,331.071198 
	C125.621994,330.977905 176.448074,331.044464 227.273819,330.942413 
	C233.466385,330.929993 237.406815,334.015381 239.932434,339.035095 
	C242.331299,343.802887 242.314758,349.050812 239.628784,353.675903 
	C236.819870,358.512665 232.652252,361.164948 226.487961,361.103485 
	C201.494110,360.854401 176.496338,361.000000 151.000000,361.000000 
z"/>
<path fill="#FFFFFF" opacity="1.000000" stroke="none" 
	d="
M255.000000,423.000000 
	C266.331085,423.000000 277.162445,423.046997 287.993164,422.984619 
	C296.131927,422.937775 301.803070,430.142944 301.708038,438.107544 
	C301.604675,446.769073 295.154205,453.102325 287.771973,453.065613 
	C256.612579,452.910675 225.451935,453.007019 194.291748,452.995026 
	C186.521667,452.992035 181.340561,447.310913 180.899429,439.394928 
	C180.538376,432.915863 182.392441,427.829132 188.031647,424.603241 
	C189.889648,423.540405 192.333069,423.078827 194.512894,423.066498 
	C214.508087,422.953552 234.504166,423.000000 255.000000,423.000000 
z"/>
</svg>